<?xml version="1.0" encoding="utf-8"?>
<!-- Generator: Adobe Illustrator 23.0.6, SVG Export Plug-In . SVG Version: 6.00 Build 0)  -->
<svg version="1.1" id="Name" xmlns="http://www.w3.org/2000/svg" xmlns:xlink="http://www.w3.org/1999/xlink" x="0px" y="0px"
	 viewBox="0 0 770.6 198" style="enable-background:new 0 0 770.6 198;" xml:space="preserve">
<style type="text/css">
	.st0{fill:#76B82A;}
</style>
<path class="st0" d="M65,0v29.8l37.6,31.8c1.4,1.2,1.5,3.2,0.4,4.6c-0.6,0.8-1.6,1.1-2.5,1.1c-0.7,0-1.5-0.3-2.1-0.8L65,38.3v27.7
	l24.2,20.4c1.4,1.2,1.5,3.2,0.4,4.6c-0.6,0.8-1.6,1.1-2.5,1.1c-0.7,0-1.5-0.3-2.1-0.8L65,74.6v51.1c0,1.8-1.5,3.2-3.2,3.2
	c-1.8,0-3.2-1.5-3.2-3.2V74.6l-20,16.9c-0.6,0.5-1.4,0.8-2.1,0.8c-0.9,0-1.8-0.4-2.5-1.1c-1.2-1.4-1-3.4,0.4-4.6l24.2-20.4V38.3
	L25.1,66.6c-0.6,0.5-1.4,0.8-2.1,0.8c-0.9,0-1.8-0.4-2.5-1.1c-1.2-1.4-1-3.4,0.4-4.6l37.6-31.8V0C26.9,1.6,1.4,27.3,0.1,58.9
	c-0.5,10.9,1.9,21.2,6.4,30.2l50.4,105.8c1.9,4.1,7.8,4.1,9.7,0L117,89.1c4.1-8.3,6.4-17.6,6.4-27.5C123.5,28.6,97.6,1.7,65,0z"/>
<g>
	<path class="st0" d="M290.4,99.4v50.9c-8.3,4.3-19.9,8-35.7,8c-31.2,0-53.2-20.4-53.2-53.6c0-33.5,23.3-54.5,53.2-54.5
		c15.6,0,26.8,4.1,33.6,8.9c-1,6.2-4,12-9.4,15.1c-6.7-4.5-14-6.9-24.4-6.9c-18.8,0-33.6,13.2-33.6,37.1c0,22.2,11.2,36.8,34,36.8
		c7.5,0,13.2-1,17.7-2.4v-22.6h-19.3c-0.6-3-1-5.7-1-8.6c0-2.7,0.3-5.4,1-8.3H290.4z"/>
	<path class="st0" d="M378,147.1c0,2.9-0.3,5.7-1.1,8.4h-67V53.2h65.5c0.6,2.6,1,5.6,1,8.3c0,2.9-0.3,5.4-1,8.1H328v25.4h42.2
		c0.6,2.7,1,5.4,1,8.1c0,2.7-0.3,5.3-1,8.1H328v28.1h48.9C377.7,141.8,378,144.5,378,147.1z"/>
	<path class="st0" d="M386.5,104.2c0-31.1,21.8-54,52.3-54c30.5,0,52.3,22.2,52.3,54c0,30.8-21.8,53.9-52.3,53.9
		C408.3,158.1,386.5,135.7,386.5,104.2z M471.6,104.2c0-22.3-12.9-37.1-32.8-37.1c-19.9,0-32.8,14.8-32.8,37.1
		c0,21.8,12.9,37,32.8,37C458.7,141.2,471.6,126,471.6,104.2z"/>
	<path class="st0" d="M587.1,53.6c-8.1,34-20.7,67.8-37.5,101.6c-3,0.8-6.2,1-9.2,1c-3.3,0-6.1-0.2-9.7-1
		c-16.6-33.3-28.7-67.1-37.5-101.6c3.7-1,8.4-1.6,12.9-1.6c2.4,0,4.6,0.2,6.9,0.5c6.7,28.7,16.1,57.4,28.2,85.5
		c12-28.4,21-57.1,27.1-85.5c1.9-0.3,4-0.5,5.9-0.5C579,52,584.6,52.7,587.1,53.6z"/>
	<path class="st0" d="M667,147.1c0,2.9-0.3,5.7-1.1,8.4h-67V53.2h65.5c0.6,2.6,1,5.6,1,8.3c0,2.9-0.3,5.4-1,8.1h-47.5v25.4h42.2
		c0.6,2.7,1,5.4,1,8.1c0,2.7-0.3,5.3-1,8.1h-42.2v28.1h48.9C666.7,141.8,667,144.5,667,147.1z"/>
	<path class="st0" d="M770.6,154.4c-3.5,1.3-7.2,1.8-11.3,1.8c-2.4,0-5.3-0.2-7.5-0.6l-9.1-24.6h-40.2l-8.8,24.6
		c-2.7,0.5-5.6,0.6-8.1,0.6c-3.8,0-7.2-0.5-10-1.8l38.1-101.2c3-0.8,6.4-1,9.4-1c3.2,0,6.1,0.2,9.1,1L770.6,154.4z M737.1,115.7
		l-11.8-31.9l-2.9-9.4l-2.9,9.4l-11.5,31.9H737.1z"/>
</g>
</svg>
